<svg width="127" height="18" viewBox="0 0 127 18" fill="none" xmlns="http://www.w3.org/2000/svg">
<g filter="url(#filter0_d_23_459)">
<path d="M17.6481 0.599999L14.8641 9H13.2081L11.1321 2.784L9.02014 9H7.35214L4.56814 0.599999H6.18814L8.27614 6.984L10.4481 0.599999H11.8881L14.0121 7.02L16.1601 0.599999H17.6481ZM18.919 0.599999H20.479V9H18.919V0.599999ZM26.207 0.599999C26.935 0.599999 27.567 0.72 28.103 0.96C28.647 1.2 29.063 1.544 29.351 1.992C29.639 2.44 29.783 2.972 29.783 3.588C29.783 4.196 29.639 4.728 29.351 5.184C29.063 5.632 28.647 5.976 28.103 6.216C27.567 6.456 26.935 6.576 26.207 6.576H24.311V9H22.751V0.599999H26.207ZM26.135 5.256C26.815 5.256 27.331 5.112 27.683 4.824C28.035 4.536 28.211 4.124 28.211 3.588C28.211 3.052 28.035 2.64 27.683 2.352C27.331 2.064 26.815 1.92 26.135 1.92H24.311V5.256H26.135ZM37.3785 9.12C36.7305 9.12 36.1025 9.028 35.4945 8.844C34.8945 8.66 34.4185 8.416 34.0665 8.112L34.6065 6.9C34.9505 7.172 35.3705 7.396 35.8665 7.572C36.3705 7.74 36.8745 7.824 37.3785 7.824C38.0025 7.824 38.4665 7.724 38.7705 7.524C39.0825 7.324 39.2385 7.06 39.2385 6.732C39.2385 6.492 39.1505 6.296 38.9745 6.144C38.8065 5.984 38.5905 5.86 38.3265 5.772C38.0625 5.684 37.7025 5.584 37.2465 5.472C36.6065 5.32 36.0865 5.168 35.6865 5.016C35.2945 4.864 34.9545 4.628 34.6665 4.308C34.3865 3.98 34.2465 3.54 34.2465 2.988C34.2465 2.524 34.3705 2.104 34.6185 1.728C34.8745 1.344 35.2545 1.04 35.7585 0.816C36.2705 0.592 36.8945 0.48 37.6305 0.48C38.1425 0.48 38.6465 0.544 39.1425 0.672C39.6385 0.8 40.0665 0.984 40.4265 1.224L39.9345 2.436C39.5665 2.22 39.1825 2.056 38.7825 1.944C38.3825 1.832 37.9945 1.776 37.6185 1.776C37.0025 1.776 36.5425 1.88 36.2385 2.088C35.9425 2.296 35.7945 2.572 35.7945 2.916C35.7945 3.156 35.8785 3.352 36.0465 3.504C36.2225 3.656 36.4425 3.776 36.7065 3.864C36.9705 3.952 37.3305 4.052 37.7865 4.164C38.4105 4.308 38.9225 4.46 39.3225 4.62C39.7225 4.772 40.0625 5.008 40.3425 5.328C40.6305 5.648 40.7745 6.08 40.7745 6.624C40.7745 7.088 40.6465 7.508 40.3905 7.884C40.1425 8.26 39.7625 8.56 39.2505 8.784C38.7385 9.008 38.1145 9.12 37.3785 9.12ZM43.9082 1.92H41.1242V0.599999H48.2522V1.92H45.4682V9H43.9082V1.92ZM49.4229 0.599999H50.9829V9H49.4229V0.599999ZM54.959 1.92H52.175V0.599999H59.303V1.92H56.519V9H54.959V1.92ZM64.2445 9.12C63.3965 9.12 62.6285 8.936 61.9405 8.568C61.2605 8.192 60.7245 7.676 60.3325 7.02C59.9485 6.364 59.7565 5.624 59.7565 4.8C59.7565 3.976 59.9525 3.236 60.3445 2.58C60.7365 1.924 61.2725 1.412 61.9525 1.044C62.6405 0.668 63.4085 0.48 64.2565 0.48C64.9445 0.48 65.5725 0.6 66.1405 0.84C66.7085 1.08 67.1885 1.428 67.5805 1.884L66.5725 2.832C65.9645 2.176 65.2165 1.848 64.3285 1.848C63.7525 1.848 63.2365 1.976 62.7805 2.232C62.3245 2.48 61.9685 2.828 61.7125 3.276C61.4565 3.724 61.3285 4.232 61.3285 4.8C61.3285 5.368 61.4565 5.876 61.7125 6.324C61.9685 6.772 62.3245 7.124 62.7805 7.38C63.2365 7.628 63.7525 7.752 64.3285 7.752C65.2165 7.752 65.9645 7.42 66.5725 6.756L67.5805 7.716C67.1885 8.172 66.7045 8.52 66.1285 8.76C65.5605 9 64.9325 9.12 64.2445 9.12ZM76.5393 0.599999V9H74.9793V5.4H70.6353V9H69.0753V0.599999H70.6353V4.068H74.9793V0.599999H76.5393ZM85.7305 9.036C84.9465 9.036 84.2305 8.848 83.5825 8.472C82.9425 8.096 82.4345 7.584 82.0585 6.936C81.6905 6.288 81.5065 5.576 81.5065 4.8C81.5065 4.024 81.6905 3.312 82.0585 2.664C82.4345 2.016 82.9465 1.504 83.5945 1.128C84.2425 0.752 84.9625 0.564 85.7545 0.564C86.5465 0.564 87.2625 0.748 87.9025 1.116C88.5505 1.484 89.0585 1.992 89.4265 2.64C89.7945 3.28 89.9785 3.992 89.9785 4.776C89.9785 5.56 89.7905 6.28 89.4145 6.936C89.0385 7.584 88.5265 8.096 87.8785 8.472C87.2305 8.848 86.5145 9.036 85.7305 9.036ZM85.7305 8.376C86.3945 8.376 86.9945 8.216 87.5305 7.896C88.0745 7.576 88.5025 7.144 88.8145 6.6C89.1265 6.048 89.2825 5.44 89.2825 4.776C89.2825 4.112 89.1305 3.512 88.8265 2.976C88.5225 2.432 88.1025 2.004 87.5665 1.692C87.0305 1.38 86.4265 1.224 85.7545 1.224C85.0825 1.224 84.4745 1.384 83.9305 1.704C83.3865 2.016 82.9585 2.444 82.6465 2.988C82.3425 3.532 82.1905 4.136 82.1905 4.8C82.1905 5.464 82.3425 6.068 82.6465 6.612C82.9585 7.156 83.3825 7.588 83.9185 7.908C84.4625 8.22 85.0665 8.376 85.7305 8.376ZM85.8625 7.248C85.3745 7.248 84.9385 7.144 84.5545 6.936C84.1705 6.728 83.8705 6.44 83.6545 6.072C83.4385 5.696 83.3305 5.272 83.3305 4.8C83.3305 4.328 83.4385 3.908 83.6545 3.54C83.8705 3.164 84.1705 2.872 84.5545 2.664C84.9385 2.456 85.3745 2.352 85.8625 2.352C86.3105 2.352 86.7065 2.448 87.0505 2.64C87.4025 2.824 87.6745 3.076 87.8665 3.396L86.9905 3.972C86.7425 3.572 86.3625 3.372 85.8505 3.372C85.4585 3.372 85.1305 3.504 84.8665 3.768C84.6105 4.024 84.4825 4.368 84.4825 4.8C84.4825 5.232 84.6105 5.58 84.8665 5.844C85.1305 6.1 85.4585 6.228 85.8505 6.228C86.3625 6.228 86.7425 6.028 86.9905 5.628L87.8665 6.18C87.6745 6.516 87.4025 6.78 87.0505 6.972C86.7065 7.156 86.3105 7.248 85.8625 7.248ZM100.434 7.68V9H94.2423V7.956L97.5783 4.788C97.9543 4.428 98.2063 4.116 98.3343 3.852C98.4703 3.58 98.5383 3.312 98.5383 3.048C98.5383 2.656 98.4063 2.356 98.1423 2.148C97.8783 1.94 97.4903 1.836 96.9783 1.836C96.1223 1.836 95.4663 2.128 95.0103 2.712L93.9183 1.872C94.2463 1.432 94.6863 1.092 95.2383 0.852C95.7983 0.604 96.4223 0.48 97.1103 0.48C98.0223 0.48 98.7503 0.696 99.2943 1.128C99.8383 1.56 100.11 2.148 100.11 2.892C100.11 3.348 100.014 3.776 99.8223 4.176C99.6303 4.576 99.2623 5.032 98.7183 5.544L96.4743 7.68H100.434ZM104.803 9.12C104.131 9.12 103.531 8.952 103.003 8.616C102.475 8.272 102.059 7.776 101.755 7.128C101.451 6.472 101.299 5.696 101.299 4.8C101.299 3.904 101.451 3.132 101.755 2.484C102.059 1.828 102.475 1.332 103.003 0.995999C103.531 0.651999 104.131 0.48 104.803 0.48C105.475 0.48 106.075 0.651999 106.603 0.995999C107.139 1.332 107.559 1.828 107.863 2.484C108.167 3.132 108.319 3.904 108.319 4.8C108.319 5.696 108.167 6.472 107.863 7.128C107.559 7.776 107.139 8.272 106.603 8.616C106.075 8.952 105.475 9.12 104.803 9.12ZM104.803 7.764C105.403 7.764 105.875 7.516 106.219 7.02C106.571 6.524 106.747 5.784 106.747 4.8C106.747 3.816 106.571 3.076 106.219 2.58C105.875 2.084 105.403 1.836 104.803 1.836C104.211 1.836 103.739 2.084 103.387 2.58C103.043 3.076 102.871 3.816 102.871 4.8C102.871 5.784 103.043 6.524 103.387 7.02C103.739 7.516 104.211 7.764 104.803 7.764ZM115.399 7.68V9H109.207V7.956L112.543 4.788C112.919 4.428 113.171 4.116 113.299 3.852C113.435 3.58 113.503 3.312 113.503 3.048C113.503 2.656 113.371 2.356 113.107 2.148C112.843 1.94 112.455 1.836 111.943 1.836C111.087 1.836 110.431 2.128 109.975 2.712L108.883 1.872C109.211 1.432 109.651 1.092 110.203 0.852C110.763 0.604 111.387 0.48 112.075 0.48C112.987 0.48 113.715 0.696 114.259 1.128C114.803 1.56 115.075 2.148 115.075 2.892C115.075 3.348 114.979 3.776 114.787 4.176C114.595 4.576 114.227 5.032 113.683 5.544L111.439 7.68H115.399ZM122.383 7.68V9H116.191V7.956L119.527 4.788C119.903 4.428 120.155 4.116 120.283 3.852C120.419 3.58 120.487 3.312 120.487 3.048C120.487 2.656 120.355 2.356 120.091 2.148C119.827 1.94 119.439 1.836 118.927 1.836C118.071 1.836 117.415 2.128 116.959 2.712L115.867 1.872C116.195 1.432 116.635 1.092 117.187 0.852C117.747 0.604 118.371 0.48 119.059 0.48C119.971 0.48 120.699 0.696 121.243 1.128C121.787 1.56 122.059 2.148 122.059 2.892C122.059 3.348 121.963 3.776 121.771 4.176C121.579 4.576 121.211 5.032 120.667 5.544L118.423 7.68H122.383Z" fill="white"/>
</g>
<defs>
<filter id="filter0_d_23_459" x="0.568359" y="0.480469" width="125.815" height="16.6387" filterUnits="userSpaceOnUse" color-interpolation-filters="sRGB">
<feFlood flood-opacity="0" result="BackgroundImageFix"/>
<feColorMatrix in="SourceAlpha" type="matrix" values="0 0 0 0 0 0 0 0 0 0 0 0 0 0 0 0 0 0 127 0" result="hardAlpha"/>
<feOffset dy="4"/>
<feGaussianBlur stdDeviation="2"/>
<feComposite in2="hardAlpha" operator="out"/>
<feColorMatrix type="matrix" values="0 0 0 0 0 0 0 0 0 0 0 0 0 0 0 0 0 0 0.25 0"/>
<feBlend mode="normal" in2="BackgroundImageFix" result="effect1_dropShadow_23_459"/>
<feBlend mode="normal" in="SourceGraphic" in2="effect1_dropShadow_23_459" result="shape"/>
</filter>
</defs>
</svg>
